# xmcd CD database file
#
# Track frame offsets:
#	150
#	12818
#	26640
#	36859
#	48543
#	58090
#	71114
#	84507
#	95858
#	112001
#	123389
#	136741
#	137959
#	139176
#	148456
#	150607
#	152762
#	166991
#	173632
#	185167
#	187494
#	189825
#	200040
#	201595
#	203155
#	211336
#	240359
#
# Disc length: 3455 seconds
#
# Revision: 0
# Processed by: cddbd v1.4PL0 Copyright (c) Steve Scherf et al.
# Submitted via: CDex 1.50
#
DISCID=a60d7d1b
DTITLE=Só Putaria - Só Putaria Sertanejo
DYEAR=2002
DGENRE=Country
TTITLE0=Só Putaria 01
TTITLE1=Só Putaria 02
TTITLE2=Só Putaria 03
TTITLE3=Só Putaria 04
TTITLE4=Só Putaria 05
TTITLE5=Só Putaria 06
TTITLE6=Só Putaria 07
TTITLE7=Só Putaria 08
TTITLE8=Só Putaria 09
TTITLE9=Só Putaria 10
TTITLE10=Só Putaria 11
TTITLE11=Só Putaria 12
TTITLE12=Só Putaria 13
TTITLE13=Só Putaria 14
TTITLE14=Só Putaria 15
TTITLE15=Só Putaria 16
TTITLE16=Só Putaria 17
TTITLE17=Só Putaria 18
TTITLE18=Só Putaria 19
TTITLE19=Só Putaria 20
TTITLE20=Só Putaria 21
TTITLE21=Só Putaria 22
TTITLE22=Só Putaria 23
TTITLE23=Só Putaria 24
TTITLE24=Só Putaria 25
TTITLE25=Só Putaria 26
TTITLE26=Só Putaria 27
EXTD=YEAR: 2002
EXTT0=
EXTT1=
EXTT2=
EXTT3=
EXTT4=
EXTT5=
EXTT6=
EXTT7=
EXTT8=
EXTT9=
EXTT10=
EXTT11=
EXTT12=
EXTT13=
EXTT14=
EXTT15=
EXTT16=
EXTT17=
EXTT18=
EXTT19=
EXTT20=
EXTT21=
EXTT22=
EXTT23=
EXTT24=
EXTT25=
EXTT26=
PLAYORDER=
